<?xml version="1.0" standalone="no"?>
<!DOCTYPE svg PUBLIC "-//W3C//DTD SVG 20010904//EN"
 "http://www.w3.org/TR/2001/REC-SVG-20010904/DTD/svg10.dtd">
<svg version="1.0" xmlns="http://www.w3.org/2000/svg"
 width="842.000000pt" height="842.000000pt" viewBox="0 0 842.000000 842.000000"
 preserveAspectRatio="xMidYMid meet">
<metadata>
Created by potrace 1.11, written by Peter Selinger 2001-2013
</metadata>
<g transform="translate(0.000000,842.000000) scale(0.100000,-0.100000)"
fill="#000000" stroke="none">
<path d="M3158 6394 c-2 -1 -21 -5 -43 -8 -95 -15 -214 -97 -272 -189 -27 -43
-81 -166 -87 -201 -2 -12 -7 -32 -10 -46 -34 -146 -39 -410 -11 -600 3 -19 7
-48 9 -65 8 -63 17 -112 30 -169 8 -33 12 -64 10 -70 -2 -6 -44 -24 -92 -40
-158 -51 -353 -140 -502 -228 -210 -123 -370 -305 -411 -466 -48 -193 54 -398
286 -570 39 -29 75 -57 82 -62 7 -6 17 -10 23 -10 5 0 10 -3 10 -7 0 -5 10
-13 23 -19 12 -6 60 -31 107 -55 74 -39 166 -81 235 -109 77 -31 128 -49 183
-65 l64 -19 -6 -36 c-6 -34 -10 -60 -21 -110 -3 -14 -7 -43 -11 -65 -3 -22 -7
-51 -9 -65 -9 -59 -24 -221 -26 -285 -2 -69 13 -258 26 -320 10 -44 18 -84 19
-90 5 -23 46 -123 68 -164 52 -98 174 -193 278 -216 48 -11 178 -13 215 -4 17
5 41 10 55 13 53 11 67 15 145 46 94 37 225 106 310 163 64 43 203 145 221
162 6 5 37 33 69 60 32 28 66 58 74 67 16 16 19 15 61 -20 25 -20 55 -47 67
-59 12 -11 75 -61 140 -110 155 -116 266 -182 438 -259 33 -14 138 -45 170
-50 11 -2 31 -5 45 -9 49 -11 176 -6 227 10 139 42 229 131 299 295 18 44 32
80 30 80 -2 0 3 26 10 58 34 141 38 450 9 622 -2 14 -7 43 -10 65 -3 22 -14
80 -23 130 l-17 90 80 26 c521 173 880 448 931 711 31 164 -24 309 -175 458
-85 84 -107 101 -205 165 -152 98 -315 175 -521 246 -120 41 -122 44 -103 114
4 17 11 50 14 75 3 25 8 48 10 51 2 4 6 28 9 55 3 27 8 65 11 84 13 80 13 396
-1 480 -24 148 -33 179 -87 287 -60 122 -169 215 -280 240 -40 9 -212 9 -251
0 -67 -15 -146 -41 -204 -67 -35 -16 -63 -26 -63 -22 0 4 -4 2 -8 -4 -4 -5
-25 -19 -47 -30 -134 -66 -383 -248 -517 -376 -24 -24 -28 -23 -71 18 -86 84
-351 284 -376 284 -6 0 -11 4 -11 8 0 7 -163 93 -240 126 -100 43 -204 67
-304 70 -42 2 -77 2 -78 0z m122 -228 c136 -19 284 -86 470 -214 52 -35 97
-67 100 -71 3 -3 21 -18 40 -32 19 -15 46 -37 60 -49 14 -12 42 -36 63 -53 20
-17 37 -34 37 -37 0 -5 -12 -19 -113 -131 -23 -25 -58 -65 -77 -89 -19 -23
-40 -48 -45 -54 -8 -9 -166 -216 -170 -223 -1 -2 -39 -7 -135 -19 -25 -2 -54
-7 -65 -9 -11 -2 -42 -7 -70 -10 -27 -4 -81 -14 -120 -22 -38 -8 -83 -17 -100
-19 -28 -5 -90 -19 -126 -30 -20 -6 -25 6 -44 100 -32 163 -40 249 -40 436 0
167 3 201 30 300 27 105 72 178 127 206 30 16 113 33 133 28 6 -2 26 -5 45 -8z
m2039 -16 c40 -20 106 -104 117 -148 2 -9 11 -42 19 -72 23 -81 28 -139 29
-300 0 -156 -6 -232 -30 -365 -2 -11 -9 -47 -14 -80 -6 -33 -13 -65 -15 -71
-3 -11 -38 -6 -145 20 -27 7 -105 20 -125 21 -11 1 -31 5 -45 8 -14 4 -41 9
-60 12 -75 11 -177 25 -218 29 -24 2 -45 6 -46 8 -1 2 -16 21 -32 43 -39 53
-146 189 -194 245 -21 25 -47 55 -57 66 -10 12 -42 47 -70 78 -29 31 -53 60
-53 65 0 10 105 102 199 175 309 239 593 342 740 266z m-994 -721 c56 -63 155
-183 155 -189 0 -3 -121 -5 -269 -5 l-268 0 42 55 c46 59 61 76 162 188 l66
72 41 -44 c22 -24 55 -59 71 -77z m180 -424 c82 -3 152 -8 156 -11 17 -10 174
-255 257 -399 64 -111 192 -362 192 -376 0 -25 -206 -421 -222 -427 -4 -2 -8
-8 -8 -13 0 -10 -97 -168 -147 -241 -18 -26 -33 -50 -33 -53 0 -14 -39 -46
-60 -50 -108 -21 -754 -20 -852 1 -18 3 -37 22 -60 57 -18 29 -35 54 -38 57
-40 34 -370 628 -370 665 0 36 306 592 333 603 4 2 7 8 7 14 0 12 61 102 72
106 4 2 8 9 8 17 0 19 29 40 59 42 14 1 91 5 171 8 80 4 146 8 147 9 4 3 251
-2 388 -9z m-1041 -57 c-5 -7 -35 -56 -67 -108 -33 -52 -63 -104 -68 -115 -5
-11 -18 -34 -28 -51 -10 -17 -36 -63 -56 -102 -20 -40 -40 -72 -45 -72 -4 0
-17 28 -29 63 -12 34 -25 69 -28 77 -34 90 -78 231 -74 238 7 11 152 44 159
37 3 -3 10 -1 16 4 11 8 51 16 136 27 25 4 47 8 49 10 2 2 13 4 23 4 13 0 17
-4 12 -12z m1596 -3 c29 -6 138 -26 160 -29 8 -1 43 -8 78 -16 62 -14 63 -14
56 -45 -6 -30 -78 -248 -97 -295 -5 -14 -11 -31 -13 -38 -3 -16 -12 -27 -18
-21 -2 2 -19 33 -38 69 -67 124 -102 185 -110 188 -4 2 -8 9 -8 15 0 7 -15 35
-33 62 -18 28 -43 67 -56 88 l-23 37 39 -5 c21 -2 49 -7 63 -10z m-2180 -232
c18 -60 37 -115 41 -123 4 -8 15 -37 24 -65 10 -27 42 -109 72 -182 44 -108
52 -136 43 -152 -17 -32 -120 -292 -120 -303 0 -6 -6 -24 -14 -41 -8 -18 -25
-66 -38 -107 -12 -41 -23 -77 -24 -80 -1 -3 -5 -15 -9 -28 -8 -25 -7 -25 -115
15 -36 13 -69 25 -75 26 -20 5 -150 61 -159 69 -6 4 -18 8 -27 8 -10 0 -19 3
-21 8 -1 4 -32 22 -68 41 -231 120 -402 297 -402 415 1 151 197 330 532 485
88 41 291 118 315 120 6 1 26 -47 45 -106z m2845 62 c69 -25 171 -68 228 -96
109 -54 119 -59 184 -101 23 -16 44 -28 48 -28 4 0 12 -6 19 -12 7 -7 28 -24
46 -38 107 -80 190 -200 192 -278 4 -142 -190 -327 -497 -472 -84 -40 -282
-118 -315 -125 -8 -2 -21 -5 -29 -7 -11 -2 -29 39 -67 152 -29 85 -60 171 -68
192 -9 21 -24 57 -33 81 -9 23 -25 61 -35 84 -42 97 -43 83 7 198 7 17 27 68
45 115 18 47 38 99 45 115 9 24 45 135 81 253 5 18 13 16 149 -33z m-482 -852
c3 -10 21 -63 41 -118 20 -55 47 -135 60 -177 l24 -76 -67 -16 c-78 -20 -103
-24 -155 -31 -21 -3 -41 -7 -45 -9 -3 -2 -28 -7 -56 -10 -27 -4 -58 -9 -67
-12 -12 -4 -15 0 -11 16 3 11 9 20 13 20 4 0 13 14 20 30 7 17 16 30 21 30 5
0 9 5 9 10 0 6 12 29 27 53 14 23 25 42 22 42 -2 0 6 14 17 30 20 28 94 162
118 212 13 27 22 29 29 6z m-2003 -55 c18 -35 38 -73 44 -85 6 -13 14 -23 19
-23 4 0 7 -6 7 -12 0 -7 36 -71 80 -142 44 -71 79 -130 78 -131 -2 -2 -39 3
-83 11 -44 8 -95 17 -114 20 -18 3 -43 8 -55 10 -11 3 -32 7 -46 10 -65 13
-100 26 -100 37 0 7 27 91 60 187 33 96 60 176 60 178 0 1 4 2 9 2 5 0 23 -28
41 -62z m-170 -549 c58 -14 78 -18 115 -24 17 -3 37 -8 45 -10 8 -2 31 -6 50
-9 19 -3 44 -7 55 -10 38 -7 100 -17 145 -21 98 -11 161 -22 169 -31 4 -5 39
-49 77 -99 37 -49 71 -92 74 -95 3 -3 24 -27 45 -55 47 -58 81 -97 152 -174
29 -31 53 -61 53 -66 0 -6 -17 -25 -37 -42 -21 -18 -51 -44 -68 -59 -72 -64
-311 -234 -329 -234 -4 0 -23 -10 -44 -23 -38 -24 -156 -76 -182 -81 -8 -1
-35 -8 -60 -16 -42 -12 -135 -15 -170 -6 -75 18 -119 63 -160 164 -41 101 -54
191 -54 367 0 112 7 222 20 305 8 51 38 211 43 228 2 4 14 2 61 -9z m2370 -56
c8 -38 15 -77 16 -88 2 -11 6 -42 9 -70 4 -27 10 -68 15 -89 15 -67 5 -412
-13 -487 -31 -122 -72 -198 -132 -238 -48 -33 -150 -36 -254 -10 -87 23 -288
117 -346 162 -5 4 -39 28 -74 52 -70 48 -251 196 -272 221 -11 14 -10 19 6 33
41 33 243 274 345 409 46 61 59 72 84 73 17 0 40 2 51 4 11 2 43 6 70 10 28 3
59 7 70 9 11 2 45 7 75 11 30 5 57 9 60 10 36 8 71 16 95 20 17 3 55 11 85 19
96 24 95 25 110 -51z m-968 -87 c-9 -12 -19 -23 -22 -26 -3 -3 -23 -27 -45
-55 -22 -27 -44 -55 -50 -61 -5 -6 -37 -41 -69 -77 -56 -63 -80 -79 -88 -58
-1 5 -28 36 -58 68 -30 33 -66 73 -80 89 -59 69 -110 132 -110 136 0 2 121 4
270 4 l270 1 -18 -21z"/>
<path d="M4197 4674 c-1 -1 -27 -4 -57 -8 -72 -8 -184 -65 -244 -123 -190
-188 -181 -496 22 -674 50 -44 170 -98 229 -103 26 -3 50 -5 53 -7 3 -1 9 -1
13 0 4 1 29 3 55 6 108 11 202 60 284 148 48 50 98 142 98 177 0 10 4 21 9 24
4 3 9 46 9 96 0 100 -26 192 -75 263 -56 80 -166 161 -248 182 -32 8 -144 23
-148 19z"/>
</g>
</svg>
